<svg width="25" height="26" viewBox="0 0 25 26" fill="none" xmlns="http://www.w3.org/2000/svg">
<path d="M11.7134 24.561H11.7134L5.37917 24.5594C5.37916 24.5594 5.37915 24.5594 5.37915 24.5594C5.11406 24.5594 4.90208 24.3433 4.90208 24.078C4.90208 23.8127 5.11407 23.5966 5.37917 23.5966H5.3792L11.7134 23.5982H11.7135H11.715C13.0923 23.5982 14.4404 23.2095 15.6104 22.474L15.6104 22.474L23.5429 17.4913C23.7512 17.3334 23.8578 17.1634 23.8857 16.9744L23.8857 16.9743C23.9161 16.7686 23.8351 16.5775 23.6652 16.4576C23.4808 16.3276 23.2071 16.281 22.8593 16.3337C22.5133 16.3861 22.1057 16.5354 21.6676 16.7809C21.601 16.8205 21.0465 17.173 20.1288 17.7588L20.1287 17.7589L20.0429 17.8135C19.1706 18.3697 17.8798 19.1927 16.1847 20.2696C15.9614 20.4115 15.6655 20.3433 15.5257 20.1182C15.3864 19.894 15.4525 19.5962 15.6754 19.4546L15.6754 19.4546C16.8776 18.6908 17.8756 18.0549 18.6661 17.5511C19.0272 17.321 19.3451 17.1185 19.6193 16.944C20.793 16.1956 21.1401 15.9753 21.2027 15.9403M11.7134 24.561L21.2514 16.0276M11.7134 24.561H11.715C13.2719 24.561 14.7924 24.1206 16.1141 23.2911L16.1141 23.2911L24.0614 18.299M11.7134 24.561L24.0614 18.299M21.2027 15.9403L21.2514 16.0276M21.2027 15.9403C21.2026 15.9403 21.2025 15.9403 21.2025 15.9404L21.2514 16.0276M21.2027 15.9403C21.8173 15.5951 22.397 15.3982 22.9235 15.3573L22.9236 15.3573C23.4184 15.3197 23.8651 15.4238 24.2105 15.6685M21.2514 16.0276C21.8576 15.6871 22.4232 15.4964 22.9312 15.457C23.4081 15.4208 23.8303 15.5217 24.1529 15.7502M24.2105 15.6685C24.2105 15.6684 24.2105 15.6684 24.2105 15.6684L24.1529 15.7502M24.2105 15.6685C24.2106 15.6685 24.2106 15.6685 24.2107 15.6686L24.1529 15.7502M24.2105 15.6685C24.678 15.9978 24.9134 16.5538 24.8283 17.1189L24.8283 17.119C24.7585 17.5798 24.5087 17.9689 24.0955 18.2754M24.1529 15.7502C24.5892 16.0575 24.8089 16.576 24.7294 17.104C24.664 17.5358 24.4303 17.9031 24.0345 18.1962M24.0955 18.2754C24.0961 18.2749 24.0967 18.2744 24.0974 18.2739L24.0345 18.1962M24.0955 18.2754C24.095 18.2758 24.0945 18.2762 24.094 18.2766L24.0345 18.1962M24.0955 18.2754C24.0841 18.2845 24.072 18.2926 24.0622 18.2986L24.0627 18.2982L24.0095 18.2135M24.0345 18.1962C24.0267 18.2025 24.0173 18.2088 24.0095 18.2135M24.0095 18.2135L24.0614 18.299M24.0095 18.2135L16.0609 23.2064C14.7551 24.026 13.2529 24.461 11.715 24.461L24.0614 18.299" fill="#A0A0A0" stroke="#A0A0A0" stroke-width="0.2"/>
<path d="M9.93112 18.6423H9.93424H14.6058C14.8769 18.6423 15.1278 18.751 15.3148 18.9496C15.4955 19.1419 15.589 19.3909 15.5766 19.6525L9.93112 18.6423ZM9.93112 18.6423C9.60856 18.6391 8.85593 18.6328 8.07213 18.8078L9.93112 18.6423ZM15.4767 19.6478L15.4767 19.648C15.4557 20.1091 15.0798 20.4698 14.6245 20.4698H10.8473C10.5822 20.4698 10.3702 20.6858 10.3702 20.9512C10.3702 21.2165 10.5822 21.4326 10.8473 21.4326H14.6245C15.5937 21.4326 16.3845 20.6661 16.4322 19.6921L16.4322 19.6918C16.4553 19.1933 16.2771 18.7162 15.9345 18.353L15.9343 18.3528C15.59 17.9896 15.1073 17.7795 14.6073 17.7795H9.93779C9.39463 17.7747 8.66745 17.7905 7.88825 17.9647C6.86123 18.1936 6.01987 18.6384 5.3932 19.2884L5.46519 19.3578L5.39331 19.2883C5.24983 19.4366 5.11581 19.5963 4.99445 19.7659C4.83935 19.9806 4.88655 20.2804 5.09874 20.4374C5.31239 20.5955 5.61067 20.5468 5.76593 20.3321L5.76593 20.3321L5.76633 20.3315C5.86007 20.2 5.96431 20.0747 6.07593 19.9603L6.0763 19.9599C6.56644 19.452 7.24249 19.0959 8.09392 18.9054C8.86558 18.7331 9.6082 18.7391 9.93014 18.7423V18.7423H9.93112H9.93113H9.93114H9.93115H9.93116H9.93116H9.93117H9.93118H9.93119H9.9312H9.93121H9.93122H9.93123H9.93123H9.93124H9.93125H9.93126H9.93127H9.93128H9.93129H9.93129H9.9313H9.93131H9.93132H9.93133H9.93134H9.93134H9.93135H9.93136H9.93137H9.93138H9.93139H9.93139H9.9314H9.93141H9.93142H9.93143H9.93143H9.93144H9.93145H9.93146H9.93147H9.93147H9.93148H9.93149H9.9315H9.9315H9.93151H9.93152H9.93153H9.93153H9.93154H9.93155H9.93156H9.93156H9.93157H9.93158H9.93159H9.93159H9.9316H9.93161H9.93161H9.93162H9.93163H9.93164H9.93164H9.93165H9.93166H9.93166H9.93167H9.93168H9.93169H9.93169H9.9317H9.93171H9.93171H9.93172H9.93173H9.93173H9.93174H9.93175H9.93175H9.93176H9.93177H9.93177H9.93178H9.93179H9.93179H9.9318H9.93181H9.93181H9.93182H9.93183H9.93183H9.93184H9.93185H9.93185H9.93186H9.93186H9.93187H9.93188H9.93188H9.93189H9.9319H9.9319H9.93191H9.93191H9.93192H9.93193H9.93193H9.93194H9.93194H9.93195H9.93196H9.93196H9.93197H9.93197H9.93198H9.93199H9.93199H9.932H9.932H9.93201H9.93202H9.93202H9.93203H9.93203H9.93204H9.93204H9.93205H9.93206H9.93206H9.93207H9.93207H9.93208H9.93208H9.93209H9.9321H9.9321H9.93211H9.93211H9.93212H9.93212H9.93213H9.93213H9.93214H9.93214H9.93215H9.93216H9.93216H9.93217H9.93217H9.93218H9.93218H9.93219H9.93219H9.9322H9.9322H9.93221H9.93221H9.93222H9.93222H9.93223H9.93223H9.93224H9.93224H9.93225H9.93225H9.93226H9.93226H9.93227H9.93227H9.93228H9.93228H9.93229H9.9323H9.9323H9.93231H9.93231H9.93232H9.93232H9.93232H9.93233H9.93233H9.93234H9.93234H9.93235H9.93235H9.93236H9.93236H9.93237H9.93237H9.93238H9.93238H9.93239H9.93239H9.9324H9.9324H9.93241H9.93241H9.93242H9.93242H9.93243H9.93243H9.93244H9.93244H9.93245H9.93245H9.93246H9.93246H9.93247H9.93247H9.93247H9.93248H9.93248H9.93249H9.93249H9.9325H9.9325H9.93251H9.93251H9.93252H9.93252H9.93253H9.93253H9.93254H9.93254H9.93254H9.93255H9.93255H9.93256H9.93256H9.93257H9.93257H9.93258H9.93258H9.93259H9.93259H9.93259H9.9326H9.9326H9.93261H9.93261H9.93262H9.93262H9.93263H9.93263H9.93264H9.93264H9.93265H9.93265H9.93265H9.93266H9.93266H9.93267H9.93267H9.93268H9.93268H9.93269H9.93269H9.9327H9.9327H9.9327H9.93271H9.93271H9.93272H9.93272H9.93273H9.93273H9.93274H9.93274H9.93275H9.93275H9.93275H9.93276H9.93276H9.93277H9.93277H9.93278H9.93278H9.93279H9.93279H9.9328H9.9328H9.93281H9.93281H9.93282H9.93282H9.93282H9.93283H9.93283H9.93284H9.93284H9.93285H9.93285H9.93286H9.93286H9.93287H9.93287H9.93288H9.93288H9.93288H9.93289H9.93289H9.9329H9.9329H9.93291H9.93291H9.93292H9.93292H9.93293H9.93293H9.93294H9.93294H9.93295H9.93295H9.93296H9.93296H9.93297H9.93297H9.93298H9.93298H9.93299H9.93299H9.93299H9.933H9.933H9.93301H9.93301H9.93302H9.93302H9.93303H9.93303H9.93304H9.93304H9.93305H9.93305H9.93306H9.93306H9.93307H9.93307H9.93308H9.93308H9.93309H9.93309H9.9331H9.9331H9.93311H9.93312H9.93312H9.93313H9.93313H9.93314H9.93314H9.93315H9.93315H9.93316H9.93316H9.93317H9.93317H9.93318H9.93318H9.93319H9.93319H9.9332H9.93321H9.93321H9.93322H9.93322H9.93323H9.93323H9.93324H9.93324H9.93325H9.93325H9.93326H9.93327H9.93327H9.93328H9.93328H9.93329H9.93329H9.9333H9.9333H9.93331H9.93332H9.93332H9.93333H9.93333H9.93334H9.93334H9.93335H9.93336H9.93336H9.93337H9.93337H9.93338H9.93339H9.93339H9.9334H9.9334H9.93341H9.93342H9.93342H9.93343H9.93343H9.93344H9.93345H9.93345H9.93346H9.93347H9.93347H9.93348H9.93348H9.93349H9.9335H9.9335H9.93351H9.93352H9.93352H9.93353H9.93353H9.93354H9.93355H9.93355H9.93356H9.93357H9.93357H9.93358H9.93359H9.93359H9.9336H9.93361H9.93361H9.93362H9.93363H9.93363H9.93364H9.93365H9.93366H9.93366H9.93367H9.93368H9.93368H9.93369H9.9337H9.9337H9.93371H9.93372H9.93373H9.93373H9.93374H9.93375H9.93375H9.93376H9.93377H9.93378H9.93378H9.93379H9.9338H9.93381H9.93381H9.93382H9.93383H9.93384H9.93384H9.93385H9.93386H9.93387H9.93387H9.93388H9.93389H9.9339H9.93391H9.93391H9.93392H9.93393H9.93394H9.93394H9.93395H9.93396H9.93397H9.93398H9.93399H9.93399H9.934H9.93401H9.93402H9.93403H9.93403H9.93404H9.93405H9.93406H9.93407H9.93408H9.93409H9.93409H9.9341H9.93411H9.93412H9.93413H9.93414H9.93415H9.93415H9.93416H9.93417H9.93418H9.93419H9.9342H9.93421H9.93422H9.93423H9.93424H14.6058C14.8491 18.7423 15.0737 18.8395 15.2419 19.0181C15.4045 19.191 15.4878 19.4137 15.4767 19.6478Z" fill="#A0A0A0" stroke="#A0A0A0" stroke-width="0.2"/>
<path d="M1.19054 25.1002H5.37754C5.64264 25.1002 5.8562 24.8826 5.8562 24.6172V18.9198C5.8562 18.6545 5.64264 18.4369 5.37754 18.4369H1.19054C0.925442 18.4369 0.71189 18.6545 0.71189 18.9198C0.71189 19.1852 0.923884 19.4012 1.18898 19.4012C1.18946 19.4012 1.18994 19.4012 1.19043 19.4012C1.19918 19.4013 1.21168 19.4013 1.22631 19.3997H4.90201V24.1374H1.22631C1.21168 24.1358 1.19918 24.1358 1.19044 24.1358L1.18898 24.1358C0.923884 24.1358 0.71189 24.3519 0.71189 24.6172C0.71189 24.8826 0.925442 25.1002 1.19054 25.1002Z" fill="#A0A0A0" stroke="#A0A0A0" stroke-width="0.2"/>
<path d="M8.97341 15.8804L8.97341 15.8804C10.0875 14.7535 11.5673 14.1339 13.1391 14.1339C14.7109 14.1339 16.1907 14.7535 17.3049 15.8804C17.3973 15.974 17.5197 16.022 17.6424 16.022C17.7655 16.022 17.8869 15.9738 17.9817 15.8819L17.9817 15.8819L17.9832 15.8804C18.1682 15.6933 18.1682 15.3879 17.9832 15.2008C17.3287 14.5389 16.5664 14.027 15.7171 13.6782L15.717 13.6782C14.8963 13.3423 14.0295 13.1711 13.1407 13.1711C12.2521 13.1711 11.3852 13.3407 10.5643 13.6782C9.71498 14.027 8.95269 14.5389 8.29827 15.2008C8.11327 15.3879 8.11327 15.6933 8.29827 15.8804C8.48388 16.0682 8.78779 16.0682 8.97341 15.8804Z" fill="#A0A0A0" stroke="#A0A0A0" stroke-width="0.2"/>
<path d="M12.6762 13.5784C12.6762 13.8437 12.8882 14.0598 13.1533 14.0598C13.4182 14.0598 13.6304 13.844 13.6304 13.58V5.89044C13.6304 5.62509 13.4184 5.40903 13.1533 5.40903C12.8882 5.40903 12.6762 5.62509 12.6762 5.89044V13.5784Z" fill="#A0A0A0" stroke="#A0A0A0" stroke-width="0.2"/>
<path d="M16.8186 9.11284L16.8183 9.113C15.8574 9.59889 15.1423 10.0805 14.6238 10.5833C13.9486 11.2384 13.6304 11.9012 13.6304 12.614C13.6304 12.8762 13.4184 13.0938 13.1533 13.0938C12.8882 13.0938 12.6762 12.8778 12.6762 12.6124C12.6762 11.6277 13.114 10.7111 13.9625 9.88818L16.8186 9.11284ZM16.8186 9.11284C17.0529 8.99335 17.1489 8.70358 17.0309 8.46693C16.9133 8.23087 16.6259 8.13192 16.3898 8.25212C15.3513 8.77812 14.555 9.31302 13.9626 9.88814L16.8186 9.11284Z" fill="#A0A0A0" stroke="#A0A0A0" stroke-width="0.2"/>
<path d="M14.1976 10.5857L14.1975 10.5856C14.0262 10.5099 13.914 10.3408 13.9119 10.152M14.1976 10.5857L14.2489 8.20545C14.0114 8.75407 13.8993 9.41018 13.9119 10.152M14.1976 10.5857C14.9073 10.898 15.5054 11.1064 16.061 11.1064C16.2374 11.1064 16.4114 11.0849 16.5812 11.0382M14.1976 10.5857L14.2379 10.4941C14.9469 10.8062 15.5281 11.0064 16.061 11.0064C16.2293 11.0064 16.3945 10.9859 16.555 10.9417M13.9119 10.152C13.9119 10.1518 13.9119 10.1517 13.9119 10.1516L14.0119 10.1506L13.9119 10.1523C13.9119 10.1522 13.9119 10.1521 13.9119 10.152ZM16.555 10.9417L16.5808 11.0383C16.581 11.0383 16.5811 11.0383 16.5812 11.0382M16.555 10.9417C17.2204 10.7636 17.7767 10.2168 18.4124 9.1151L16.555 10.9417ZM16.5812 11.0382C17.2861 10.8494 17.8596 10.2727 18.4979 9.167M16.5812 11.0382L18.4979 9.167M18.4979 9.167C18.5084 9.15035 18.5347 9.10464 18.5601 9.05889C18.5823 9.02064 18.6139 8.96434 18.6275 8.94009C18.6299 8.93591 18.6317 8.93268 18.6328 8.93066C18.6515 8.89966 18.6711 8.86309 18.6929 8.82056C18.8249 8.56598 19.1304 7.98217 19.8247 7.50483L19.825 7.50466C19.9743 7.40136 20.0528 7.22434 20.0293 7.04386C20.0058 6.8636 19.8842 6.712 19.7141 6.652M18.4979 9.167L19.7141 6.652M19.7141 6.652C19.7141 6.65201 19.7141 6.65201 19.7141 6.65202L19.6808 6.7463L19.7141 6.652ZM19.7141 6.652C19.0534 6.41859 18.2569 6.25915 17.4661 6.27359C16.6755 6.28802 15.884 6.47649 15.2416 6.94611L15.2415 6.94619M19.7141 6.652L15.2415 6.94619M15.2415 6.94619C14.8074 7.26445 14.4723 7.68861 14.2489 8.20542L15.2415 6.94619ZM18.5655 7.3352C18.1663 7.76749 17.9519 8.17634 17.8513 8.36826L17.8501 8.37048L17.85 8.37075C17.8332 8.40297 17.82 8.42828 17.8147 8.43684L17.8998 8.48941L17.8147 8.43684C17.8056 8.45153 17.7798 8.49565 17.7318 8.58184C17.7109 8.61787 17.6915 8.65283 17.6815 8.67076L18.5655 7.3352ZM18.5655 7.3352C18.2019 7.26499 17.8393 7.23027 17.4993 7.23558C16.8079 7.24638 16.2236 7.41768 15.8021 7.72542L15.7431 7.64465M18.5655 7.3352L15.7431 7.64465M15.7431 7.64465L15.8022 7.72535C15.2284 8.14533 14.9097 8.84308 14.8685 9.82645C15.5076 10.0908 15.9704 10.2064 16.336 10.1091L16.3361 10.1091C16.6005 10.0388 17.0143 9.82511 17.6758 8.68096L17.4977 7.13559C16.7918 7.14662 16.1857 7.32156 15.7431 7.64465Z" fill="#A0A0A0" stroke="#A0A0A0" stroke-width="0.2"/>
<path d="M13.1535 3.05718C13.0077 3.34528 12.8331 3.62077 12.6307 3.88094C12.2283 4.39822 11.9939 4.87773 11.9244 5.30451L11.9243 5.30485C11.8568 5.70994 11.9354 6.06328 12.1633 6.39128C12.3717 6.69008 12.7017 6.96242 13.155 7.20102C14.0163 6.74994 14.29 6.24163 14.3711 5.90045L13.1535 3.05718ZM13.1535 3.05718C13.2998 3.34433 13.4755 3.61982 13.679 3.881C14.2872 4.66433 14.5041 5.34049 14.3712 5.90041L13.1535 3.05718ZM11.8793 3.28676L11.8791 3.28705C11.3863 3.92281 11.0807 4.54788 10.9822 5.14761C10.8736 5.80171 11.0085 6.40808 11.3805 6.94357C11.7205 7.43489 12.2523 7.84668 12.9534 8.17325C13.0174 8.20356 13.0851 8.21741 13.1533 8.21741C13.2233 8.21741 13.2893 8.20123 13.3487 8.17681L13.3487 8.17692L13.3529 8.17494C13.8645 7.93626 14.2896 7.64941 14.613 7.32073C14.9608 6.96727 15.1921 6.56536 15.2965 6.12646C15.5073 5.24402 15.2026 4.28651 14.4275 3.28859C14.1334 2.90949 13.91 2.49418 13.7673 2.05507C13.6765 1.77497 13.6304 1.54396 13.6304 1.38455V1.38455V1.38454V1.38453V1.38452V1.38451V1.3845V1.38449V1.38448V1.38447V1.38446V1.38446V1.38445V1.38444V1.38443V1.38442V1.38441V1.3844V1.38439V1.38439V1.38438V1.38437V1.38436V1.38435V1.38434V1.38433V1.38433V1.38432V1.38431V1.3843V1.38429V1.38429V1.38428V1.38427V1.38426V1.38425V1.38424V1.38424V1.38423V1.38422V1.38421V1.38421V1.3842V1.38419V1.38418V1.38417V1.38417V1.38416V1.38415V1.38414V1.38414V1.38413V1.38412V1.38411V1.38411V1.3841V1.38409V1.38408V1.38408V1.38407V1.38406V1.38405V1.38405V1.38404V1.38403V1.38402V1.38402V1.38401V1.384V1.384V1.38399V1.38398V1.38397V1.38397V1.38396V1.38395V1.38395V1.38394V1.38393V1.38393V1.38392V1.38391V1.38391V1.3839V1.38389V1.38389V1.38388V1.38387V1.38387V1.38386V1.38385V1.38385V1.38384V1.38383V1.38383V1.38382V1.38381V1.38381V1.3838V1.38379V1.38379V1.38378V1.38378V1.38377V1.38376V1.38376V1.38375V1.38374V1.38374V1.38373V1.38373V1.38372V1.38371V1.38371V1.3837V1.3837V1.38369V1.38368V1.38368V1.38367V1.38367V1.38366V1.38365V1.38365V1.38364V1.38364V1.38363V1.38362V1.38362V1.38361V1.38361V1.3836V1.3836V1.38359V1.38358V1.38358V1.38357V1.38357V1.38356V1.38356V1.38355V1.38355V1.38354V1.38353V1.38353V1.38352V1.38352V1.38351V1.38351V1.3835V1.3835V1.38349V1.38349V1.38348V1.38347V1.38347V1.38346V1.38346V1.38345V1.38345V1.38344V1.38344V1.38343V1.38343V1.38342V1.38342V1.38341V1.38341V1.3834V1.3834V1.38339V1.38339V1.38338V1.38338V1.38337V1.38337V1.38336V1.38336V1.38335V1.38335V1.38334V1.38334V1.38333V1.38333V1.38332V1.38332V1.38331V1.38331V1.3833V1.3833V1.38329V1.38329V1.38328V1.38328V1.38327V1.38327V1.38326V1.38326V1.38325V1.38325V1.38324V1.38324V1.38323V1.38323V1.38322V1.38322V1.38321V1.38321V1.3832V1.3832V1.38319V1.38319V1.38318V1.38318V1.38317V1.38317V1.38316V1.38316V1.38316V1.38315V1.38315V1.38314V1.38314V1.38313V1.38313V1.38312V1.38312V1.38311V1.38311V1.3831V1.3831V1.38309V1.38309V1.38309V1.38308V1.38308V1.38307V1.38307V1.38306V1.38306V1.38305V1.38305V1.38304V1.38304V1.38303V1.38303V1.38302V1.38302V1.38302V1.38301V1.38301V1.383V1.383V1.38299V1.38299V1.38298V1.38298V1.38297V1.38297V1.38296V1.38296V1.38296V1.38295V1.38295V1.38294V1.38294V1.38293V1.38293V1.38292V1.38292V1.38291V1.38291V1.3829V1.3829V1.3829V1.38289V1.38289V1.38288V1.38288V1.38287V1.38287V1.38286V1.38286V1.38285V1.38285V1.38284V1.38284V1.38283V1.38283V1.38283V1.38282V1.38282V1.38281V1.38281V1.3828V1.3828V1.38279V1.38279V1.38278V1.38278V1.38277V1.38277V1.38276V1.38276V1.38275V1.38275V1.38274V1.38274V1.38274V1.38273V1.38273V1.38272V1.38272V1.38271V1.38271V1.3827V1.3827V1.38269V1.38269V1.38268V1.38268V1.38267V1.38267V1.38266V1.38266V1.38265V1.38265V1.38264V1.38264V1.38263V1.38263V1.38262V1.38262V1.38261V1.38261V1.3826V1.3826V1.38259V1.38259V1.38258V1.38258V1.38257V1.38257V1.38256V1.38256V1.38255V1.38255V1.38254V1.38254V1.38253V1.38253V1.38252V1.38251V1.38251V1.3825V1.3825V1.38249V1.38249V1.38248V1.38248V1.38247V1.38247V1.38246V1.38246V1.38245V1.38244V1.38244V1.38243V1.38243V1.38242V1.38242V1.38241V1.38241V1.3824V1.3824V1.38239V1.38238V1.38238V1.38237V1.38237V1.38236V1.38236V1.38235V1.38234V1.38234V1.38233V1.38233V1.38232V1.38232V1.38231V1.3823V1.3823V1.38229V1.38229V1.38228V1.38227V1.38227V1.38226V1.38226V1.38225V1.38224V1.38224V1.38223V1.38223V1.38222V1.38221V1.38221V1.3822V1.38219V1.38219V1.38218V1.38218V1.38217V1.38216V1.38216V1.38215V1.38214V1.38214V1.38213V1.38212V1.38212V1.38211V1.3821V1.3821V1.38209V1.38208V1.38208V1.38207V1.38206V1.38206V1.38205V1.38204V1.38204V1.38203V1.38202V1.38202V1.38201V1.382V1.382V1.38199V1.38198V1.38198V1.38197V1.38196V1.38195V1.38195V1.38194V1.38193V1.38193V1.38192V1.38191V1.3819V1.3819V1.38189V1.38188V1.38187V1.38187V1.38186V1.38185V1.38184V1.38184V1.38183V1.38182V1.38181V1.38181V1.3818V1.38179V1.38178V1.38178V1.38177V1.38176V1.38175V1.38174V1.38174V1.38173V1.38172V1.38171V1.3817V1.3817V1.38169V1.38168V1.38167V1.38166V1.38166V1.38165V1.38164V1.38163V1.38162V1.38161V1.38161V1.3816V1.38159V1.38158V1.38157V1.38156V1.38155V1.38155V1.38154V1.38153V1.38152V1.38151V1.3815V1.38149V1.38148V1.38148V1.38147V1.38146V1.38145V1.38144V1.38143V1.38142V1.38141V1.3814C13.6304 1.11606 13.4184 0.9 13.1533 0.9C12.8903 0.9 12.6762 1.11552 12.6762 1.37983V1.37984V1.37985V1.37985V1.37986V1.37987V1.37988V1.37989V1.3799V1.37991V1.37992V1.37993V1.37994V1.37994V1.37995V1.37996V1.37997V1.37998V1.37999V1.38V1.38V1.38001V1.38002V1.38003V1.38004V1.38005V1.38006V1.38006V1.38007V1.38008V1.38009V1.3801V1.3801V1.38011V1.38012V1.38013V1.38014V1.38015V1.38015V1.38016V1.38017V1.38018V1.38018V1.38019V1.3802V1.38021V1.38022V1.38022V1.38023V1.38024V1.38025V1.38025V1.38026V1.38027V1.38028V1.38028V1.38029V1.3803V1.38031V1.38031V1.38032V1.38033V1.38034V1.38034V1.38035V1.38036V1.38036V1.38037V1.38038V1.38039V1.38039V1.3804V1.38041V1.38041V1.38042V1.38043V1.38043V1.38044V1.38045V1.38046V1.38046V1.38047V1.38048V1.38048V1.38049V1.3805V1.3805V1.38051V1.38052V1.38052V1.38053V1.38054V1.38054V1.38055V1.38056V1.38056V1.38057V1.38057V1.38058V1.38059V1.38059V1.3806V1.38061V1.38061V1.38062V1.38062V1.38063V1.38064V1.38064V1.38065V1.38066V1.38066V1.38067V1.38067V1.38068V1.38069V1.38069V1.3807V1.3807V1.38071V1.38072V1.38072V1.38073V1.38073V1.38074V1.38075V1.38075V1.38076V1.38076V1.38077V1.38077V1.38078V1.38079V1.38079V1.3808V1.3808V1.38081V1.38081V1.38082V1.38083V1.38083V1.38084V1.38084V1.38085V1.38085V1.38086V1.38086V1.38087V1.38087V1.38088V1.38089V1.38089V1.3809V1.3809V1.38091V1.38091V1.38092V1.38092V1.38093V1.38093V1.38094V1.38094V1.38095V1.38095V1.38096V1.38096V1.38097V1.38098V1.38098V1.38099V1.38099V1.381V1.381V1.38101V1.38101V1.38102V1.38102V1.38103V1.38103V1.38104V1.38104V1.38105V1.38105V1.38106V1.38106V1.38107V1.38107V1.38108V1.38108V1.38109V1.38109V1.3811V1.3811V1.38111V1.38111V1.38112V1.38112V1.38113V1.38113V1.38114V1.38114V1.38115V1.38115V1.38115V1.38116V1.38116V1.38117V1.38117V1.38118V1.38118V1.38119V1.38119V1.3812V1.3812V1.38121V1.38121V1.38122V1.38122V1.38123V1.38123V1.38124V1.38124V1.38124V1.38125V1.38125V1.38126V1.38126V1.38127V1.38127V1.38128V1.38128V1.38129V1.38129V1.3813V1.3813V1.38131V1.38131V1.38131V1.38132V1.38132V1.38133V1.38133V1.38134V1.38134V1.38135V1.38135V1.38136V1.38136V1.38137V1.38137V1.38138V1.38138V1.38138V1.38139V1.38139V1.3814V1.3814V1.38141V1.38141V1.38142V1.38142V1.38143V1.38143V1.38144V1.38144V1.38144V1.38145V1.38145V1.38146V1.38146V1.38147V1.38147V1.38148V1.38148V1.38149V1.38149V1.3815V1.3815V1.3815V1.38151V1.38151V1.38152V1.38152V1.38153V1.38153V1.38154V1.38154V1.38155V1.38155V1.38156V1.38156V1.38157V1.38157V1.38157V1.38158V1.38158V1.38159V1.38159V1.3816V1.3816V1.38161V1.38161V1.38162V1.38162V1.38163V1.38163V1.38164V1.38164V1.38165V1.38165V1.38166V1.38166V1.38167V1.38167V1.38168V1.38168V1.38168V1.38169V1.38169V1.3817V1.3817V1.38171V1.38171V1.38172V1.38172V1.38173V1.38173V1.38174V1.38174V1.38175V1.38175V1.38176V1.38176V1.38177V1.38177V1.38178V1.38178V1.38179V1.38179V1.3818V1.3818V1.38181V1.38181V1.38182V1.38183V1.38183V1.38184V1.38184V1.38185V1.38185V1.38186V1.38186V1.38187V1.38187V1.38188V1.38188V1.38189V1.38189V1.3819V1.3819V1.38191V1.38191V1.38192V1.38193V1.38193V1.38194V1.38194V1.38195V1.38195V1.38196V1.38196V1.38197V1.38197V1.38198V1.38199V1.38199V1.382V1.382V1.38201V1.38201V1.38202V1.38203V1.38203V1.38204V1.38204V1.38205V1.38205V1.38206V1.38207V1.38207V1.38208V1.38208V1.38209V1.3821V1.3821V1.38211V1.38211V1.38212V1.38213V1.38213V1.38214V1.38214V1.38215V1.38216V1.38216V1.38217V1.38217V1.38218V1.38219V1.38219V1.3822V1.38221V1.38221V1.38222V1.38222V1.38223V1.38224V1.38224V1.38225V1.38226V1.38226V1.38227V1.38228V1.38228V1.38229V1.3823V1.3823V1.38231V1.38232V1.38232V1.38233V1.38234V1.38234V1.38235V1.38236V1.38236V1.38237V1.38238V1.38238V1.38239V1.3824V1.38241V1.38241V1.38242V1.38243V1.38243V1.38244V1.38245V1.38246V1.38246V1.38247V1.38248V1.38248V1.38249V1.3825V1.38251V1.38251V1.38252V1.38253V1.38254V1.38254V1.38255V1.38256V1.38257V1.38257V1.38258V1.38259V1.3826V1.38261V1.38261V1.38262V1.38263V1.38264V1.38264V1.38265V1.38266V1.38267V1.38268V1.38268V1.38269V1.3827V1.38271V1.38272V1.38273V1.38273V1.38274V1.38275V1.38276V1.38277V1.38278V1.38278V1.38279V1.3828V1.38281V1.38282V1.38283V1.38284V1.38284V1.38285V1.38286V1.38287V1.38288V1.38289V1.3829V1.38291V1.38291V1.38292V1.38293V1.38294V1.38295V1.38296V1.38297V1.38298C12.6762 1.49941 12.6497 1.72761 12.5149 2.11954C12.3721 2.53452 12.1592 2.9282 11.8793 3.28676ZM12.5518 3.81954C12.1435 4.34437 11.8989 4.83924 11.8257 5.28842L12.5518 3.81954Z" fill="#A0A0A0" stroke="#A0A0A0" stroke-width="0.2"/>
<path d="M11.7523 10.51C11.224 9.99774 10.4979 9.51232 9.53333 9.02217M11.7523 10.51L11.6826 10.5817C11.6826 10.5817 11.6827 10.5817 11.6827 10.5817M11.7523 10.51C12.441 11.1782 12.776 11.8669 12.776 12.6124C12.776 12.8236 12.9443 12.9938 13.1531 12.9938C13.3619 12.9938 13.5302 12.822 13.5302 12.6108C13.5302 11.6589 13.1079 10.7669 12.2743 9.95834L11.7523 10.51ZM9.53333 9.02217L11.6827 10.5817M9.53333 9.02217C9.3479 8.92761 9.27155 8.69908 9.36504 8.50996L9.53333 9.02217ZM11.6827 10.5817C11.1642 10.079 10.4476 9.59893 9.48803 9.11132L9.4879 9.11125C9.25353 8.99173 9.15773 8.70366 9.2754 8.46564L9.27555 8.46534L9.27555 8.46534C9.3933 8.22914 9.67916 8.13043 9.9166 8.2505C10.9568 8.77655 11.7515 9.31146 12.3439 9.88655C13.1924 10.7095 13.6302 11.6261 13.6302 12.6108C13.6302 12.8756 13.4188 13.0938 13.1531 13.0938C12.888 13.0938 12.676 12.8777 12.676 12.6124C12.676 11.9011 12.3578 11.2368 11.6827 10.5817Z" fill="#A0A0A0" stroke="#A0A0A0" stroke-width="0.2"/>
<path d="M9.72615 11.04L9.72569 11.0399C9.02051 10.8512 8.44699 10.2743 7.8085 9.1668C7.80256 9.15726 7.79361 9.14123 7.7853 9.12627L7.76762 9.09438L7.74766 9.05838C7.74033 9.04529 7.73128 9.02927 7.722 9.01284C7.70269 8.97867 7.68238 8.94272 7.67437 8.92756C7.66294 8.90839 7.65046 8.88492 7.63783 8.86117C7.63066 8.84771 7.62345 8.83415 7.61636 8.82124L7.61533 8.81936L7.61535 8.81935C7.48323 8.56607 7.17774 7.98065 6.48335 7.50326L6.54 7.42085M9.72615 11.04L6.5924 6.65202C6.42238 6.71202 6.30076 6.86357 6.27723 7.04379M9.72615 11.04C9.89679 11.0848 10.069 11.1064 10.2471 11.1064C10.8028 11.1064 11.4009 10.8964 12.1088 10.5857L12.1091 10.5856C12.2812 10.5096 12.3907 10.34 12.3946 10.1526L12.3946 10.1523M9.72615 11.04L12.3946 10.1523M6.54 7.42085L6.48384 7.50359C6.33426 7.40207 6.25361 7.22324 6.27723 7.04379M6.54 7.42085C6.42158 7.34047 6.35769 7.19863 6.37639 7.05679M6.54 7.42085C7.25506 7.91245 7.56984 8.5159 7.70391 8.7729L7.70401 8.7731C7.71288 8.78925 7.72086 8.80427 7.72828 8.81824C7.7404 8.84107 7.75103 8.86109 7.76166 8.87869C7.76582 8.8871 7.78521 8.92142 7.80552 8.95737L6.37639 7.05679M6.27723 7.04379C6.27723 7.04381 6.27723 7.04383 6.27723 7.04386L6.37639 7.05679M6.27723 7.04379C6.27724 7.04376 6.27724 7.04374 6.27724 7.04372L6.37639 7.05679M12.3946 10.1523C12.4072 9.41036 12.2951 8.75415 12.0576 8.20545C11.8343 7.68876 11.5008 7.26448 11.0649 6.94609M12.3946 10.1523L11.0649 6.94609M7.74295 7.33363C8.14027 7.76288 8.35317 8.16903 8.45459 8.36249L8.45794 8.3689L8.45809 8.36917C8.47486 8.4014 8.48811 8.4267 8.4934 8.43527L8.4961 8.43963L8.49598 8.43969C8.50317 8.45277 8.52588 8.49261 8.57595 8.57965C8.57598 8.5797 8.57601 8.57976 8.57605 8.57981L7.74295 7.33363ZM7.74295 7.33363C8.10618 7.26379 8.46888 7.22979 8.8093 7.23243C9.50028 7.24173 10.086 7.41454 10.5058 7.72216L10.5059 7.72219C11.0798 8.14225 11.3999 8.84008 11.4397 9.82327L7.74295 7.33363ZM11.0649 6.94609C10.4225 6.47649 9.63099 6.28802 8.84043 6.27359M11.0649 6.94609L8.84043 6.27359M8.84043 6.27359C8.04966 6.25915 7.25316 6.41859 6.59243 6.652L8.84043 6.27359Z" fill="#A0A0A0" stroke="#A0A0A0" stroke-width="0.2"/>
</svg>
