<svg width="21" height="21" viewBox="0 0 21 21" fill="none" xmlns="http://www.w3.org/2000/svg">
<path d="M16.4327 20.5H4.76603C3.66137 20.4987 2.60233 20.0593 1.82122 19.2782C1.0401 18.497 0.600688 17.438 0.599365 16.3333L0.599365 4.66667C0.600688 3.562 1.0401 2.50296 1.82122 1.72185C2.60233 0.940735 3.66137 0.501323 4.76603 0.5L16.4327 0.5C17.5374 0.501323 18.5964 0.940735 19.3775 1.72185C20.1586 2.50296 20.598 3.562 20.5994 4.66667V16.3333C20.598 17.438 20.1586 18.497 19.3775 19.2782C18.5964 20.0593 17.5374 20.4987 16.4327 20.5ZM4.76603 2.16667C4.10299 2.16667 3.46711 2.43006 2.99827 2.8989C2.52942 3.36774 2.26603 4.00363 2.26603 4.66667V16.3333C2.26603 16.9964 2.52942 17.6323 2.99827 18.1011C3.46711 18.5699 4.10299 18.8333 4.76603 18.8333H16.4327C17.0957 18.8333 17.7316 18.5699 18.2005 18.1011C18.6693 17.6323 18.9327 16.9964 18.9327 16.3333V4.66667C18.9327 4.00363 18.6693 3.36774 18.2005 2.8989C17.7316 2.43006 17.0957 2.16667 16.4327 2.16667H4.76603ZM5.82353 9.33333L10.0627 13.6283C10.1326 13.6999 10.216 13.7568 10.3082 13.7956C10.4004 13.8344 10.4994 13.8544 10.5994 13.8544C10.6994 13.8544 10.7984 13.8344 10.8905 13.7956C10.9827 13.7568 11.0662 13.6999 11.136 13.6283L15.3752 9.33333C15.4818 9.22602 15.5544 9.0897 15.5839 8.94139C15.6135 8.79307 15.5988 8.63933 15.5415 8.49935C15.4843 8.35936 15.3871 8.23933 15.2621 8.15424C15.1371 8.06914 14.9898 8.02274 14.8385 8.02083H6.3602C6.20898 8.02274 6.06166 8.06914 5.93664 8.15424C5.81162 8.23933 5.71443 8.35936 5.65719 8.49935C5.59995 8.63933 5.5852 8.79307 5.61478 8.94139C5.64436 9.0897 5.71697 9.22602 5.82353 9.33333Z" fill="#4A9C80"/>
</svg>
