<svg width="12" height="13" viewBox="0 0 12 13" fill="none" xmlns="http://www.w3.org/2000/svg">
<path d="M5.05148 9.79126H1.00049" stroke="black" stroke-opacity="0.5" stroke-width="1.5" stroke-linecap="round" stroke-linejoin="round"/>
<path fill-rule="evenodd" clip-rule="evenodd" d="M7.59326 9.79185C7.59326 11.0732 8.01942 11.5 9.2967 11.5C10.574 11.5 11.0002 11.0732 11.0002 9.79185C11.0002 8.51049 10.574 8.08374 9.2967 8.08374C8.01942 8.08374 7.59326 8.51049 7.59326 9.79185Z" stroke="black" stroke-opacity="0.5" stroke-width="1.5" stroke-linecap="round" stroke-linejoin="round"/>
<path d="M6.94922 3.20898H10.9996" stroke="black" stroke-opacity="0.5" stroke-width="1.5" stroke-linecap="round" stroke-linejoin="round"/>
<path fill-rule="evenodd" clip-rule="evenodd" d="M4.40757 3.2081C4.40757 1.92731 3.98139 1.5 2.70405 1.5C1.42615 1.5 1 1.92731 1 3.2081C1 4.48946 1.42615 4.9162 2.70405 4.9162C3.98139 4.9162 4.40757 4.48946 4.40757 3.2081Z" stroke="black" stroke-opacity="0.5" stroke-width="1.5" stroke-linecap="round" stroke-linejoin="round"/>
</svg>
