<svg width="25" height="24" viewBox="0 0 25 24" fill="none" xmlns="http://www.w3.org/2000/svg">
<path d="M22.833 7.22008L14.8331 0.915623C14.0997 0.325982 13.1503 0 12.1664 0C11.1825 0 10.2331 0.325982 9.49977 0.915623L1.49983 7.22008C1.07633 7.56056 0.738371 7.97824 0.508468 8.44531C0.278566 8.91237 0.161992 9.41811 0.166508 9.92884V20.4043C0.166508 21.3579 0.587933 22.2725 1.33807 22.9468C2.08821 23.6212 3.10562 24 4.16648 24H20.1664C21.2272 24 22.2446 23.6212 22.9948 22.9468C23.7449 22.2725 24.1663 21.3579 24.1663 20.4043V9.91685C24.169 9.40814 24.0515 8.90471 23.8216 8.43984C23.5918 7.97496 23.2548 7.55922 22.833 7.22008ZM14.8331 21.6029H9.49977V15.61C9.49977 15.2922 9.64025 14.9873 9.8903 14.7625C10.1403 14.5378 10.4795 14.4115 10.8331 14.4115H13.4997C13.8534 14.4115 14.1925 14.5378 14.4425 14.7625C14.6926 14.9873 14.8331 15.2922 14.8331 15.61V21.6029ZM21.4997 20.4043C21.4997 20.7222 21.3592 21.027 21.1092 21.2518C20.8591 21.4766 20.52 21.6029 20.1664 21.6029H17.4997V15.61C17.4997 14.6564 17.0783 13.7418 16.3282 13.0675C15.578 12.3932 14.5606 12.0143 13.4997 12.0143H10.8331C9.77224 12.0143 8.75483 12.3932 8.00469 13.0675C7.25455 13.7418 6.83313 14.6564 6.83313 15.61V21.6029H4.16648C3.81286 21.6029 3.47372 21.4766 3.22368 21.2518C2.97363 21.027 2.83316 20.7222 2.83316 20.4043V9.91685C2.8334 9.74667 2.87395 9.57849 2.95211 9.4235C3.03028 9.2685 3.14426 9.13025 3.28649 9.01793L11.2864 2.72546C11.5297 2.5333 11.8425 2.42733 12.1664 2.42733C12.4903 2.42733 12.8031 2.5333 13.0464 2.72546L21.0464 9.01793C21.1886 9.13025 21.3026 9.2685 21.3807 9.4235C21.4589 9.57849 21.4995 9.74667 21.4997 9.91685V20.4043Z" fill="#4A9C80"/>
</svg>
