<svg width="12" height="12" viewBox="0 0 12 12" fill="none" xmlns="http://www.w3.org/2000/svg">
<circle cx="6" cy="6" r="6" fill="white"/>
<path d="M3 4.80031C2.99996 4.5611 3.04284 4.32428 3.12612 4.10369C3.2094 3.8831 3.33142 3.68317 3.48504 3.51558C3.63867 3.348 3.82081 3.21611 4.02084 3.12764C4.22086 3.03917 4.43475 2.99588 4.65 3.00031C4.90469 2.99881 5.15676 3.05747 5.3895 3.1724C5.62224 3.28733 5.83034 3.45592 6 3.66698C6.16966 3.45592 6.37776 3.28733 6.6105 3.1724C6.84324 3.05747 7.09531 2.99881 7.35 3.00031C7.56525 2.99588 7.77914 3.03917 7.97916 3.12764C8.17919 3.21611 8.36133 3.348 8.51496 3.51558C8.66858 3.68317 8.7906 3.8831 8.87388 4.10369C8.95716 4.32428 9.00004 4.5611 9 4.80031C9 6.58564 7.0863 7.93364 6 9.00031C4.9161 7.92464 3 6.58698 3 4.80031Z" fill="#DA1919" fill-opacity="0.8"/>
</svg>
