<svg width="22" height="17" viewBox="0 0 22 17" fill="none" xmlns="http://www.w3.org/2000/svg">
<path d="M19 4.5H16V0.5H2C0.9 0.5 0 1.4 0 2.5V13.5H2C2 15.16 3.34 16.5 5 16.5C6.66 16.5 8 15.16 8 13.5H14C14 15.16 15.34 16.5 17 16.5C18.66 16.5 20 15.16 20 13.5H22V8.5L19 4.5ZM18.5 6L20.46 8.5H16V6H18.5ZM5 14.5C4.45 14.5 4 14.05 4 13.5C4 12.95 4.45 12.5 5 12.5C5.55 12.5 6 12.95 6 13.5C6 14.05 5.55 14.5 5 14.5ZM7.22 11.5C6.67 10.89 5.89 10.5 5 10.5C4.11 10.5 3.33 10.89 2.78 11.5H2V2.5H14V11.5H7.22ZM17 14.5C16.45 14.5 16 14.05 16 13.5C16 12.95 16.45 12.5 17 12.5C17.55 12.5 18 12.95 18 13.5C18 14.05 17.55 14.5 17 14.5Z" fill="black" fill-opacity="0.5"/>
</svg>
