<svg width="25" height="24" viewBox="0 0 25 24" fill="none" xmlns="http://www.w3.org/2000/svg">
<path fill-rule="evenodd" clip-rule="evenodd" d="M19.554 19.2517C21.4143 17.4009 22.5663 14.8354 22.5663 12C22.5663 6.35848 18.0056 1.78512 12.3797 1.78512C6.75383 1.78512 2.19314 6.35848 2.19314 12C2.19314 14.7339 3.26414 17.2169 5.00837 19.0502C6.52916 16.6711 9.18941 15.0931 12.2187 15.0931C15.3328 15.0931 18.0568 16.7606 19.554 19.2517ZM18.1648 20.4089C17.0121 18.3036 14.7805 16.8782 12.2187 16.8782C9.72389 16.8782 7.54228 18.23 6.36526 20.2452C8.05076 21.4836 10.1301 22.2149 12.3797 22.2149C14.5284 22.2149 16.5216 21.5478 18.1648 20.4089ZM12.3797 24C18.9888 24 24.3465 18.6274 24.3465 12C24.3465 5.37258 18.9888 0 12.3797 0C5.77066 0 0.412964 5.37258 0.412964 12C0.412964 18.6274 5.77066 24 12.3797 24ZM12.3794 12.0819C13.5626 12.0819 14.5218 11.1201 14.5218 9.93353C14.5218 8.747 13.5626 7.78512 12.3794 7.78512C11.1961 7.78512 10.2369 8.747 10.2369 9.93353C10.2369 11.1201 11.1961 12.0819 12.3794 12.0819ZM12.3794 13.8671C14.5458 13.8671 16.302 12.106 16.302 9.93353C16.302 7.7611 14.5458 6 12.3794 6C10.213 6 8.45673 7.7611 8.45673 9.93353C8.45673 12.106 10.213 13.8671 12.3794 13.8671Z" fill="#A0A0A0"/>
</svg>
