<svg width="29" height="18" viewBox="0 0 29 18" fill="none" xmlns="http://www.w3.org/2000/svg">
<path d="M26.5399 7.63083L25.8148 4.68328C26.0131 4.64049 26.1618 4.46175 26.1618 4.24761V3.77237C26.1618 2.74052 25.3358 1.90108 24.3205 1.90108H21.0178V0.920805C21.0178 0.413051 20.6114 0 20.1117 0H3.2766C2.77697 0 2.37053 0.413051 2.37053 0.920805V9.00008C2.37053 9.24612 2.56681 9.44565 2.80897 9.44565C3.05107 9.44565 3.2474 9.24618 3.2474 9.00008V0.920805C3.2474 0.90441 3.26047 0.891127 3.2766 0.891127H20.1117C20.1278 0.891127 20.1409 0.90441 20.1409 0.920805V9.0002C20.1409 9.24624 20.3372 9.44576 20.5793 9.44576C20.8214 9.44576 21.0178 9.24629 21.0178 9.0002V8.49511H26.1895C26.1899 8.49511 26.1903 8.49522 26.1907 8.49522C26.1911 8.49522 26.1915 8.49516 26.1919 8.49516C26.8283 8.49561 27.3686 8.92011 27.5542 9.50506H26.191C25.9489 9.50506 25.7526 9.70453 25.7526 9.95062V10.9011C25.7526 11.6709 26.3688 12.2972 27.1262 12.2972H27.6231V14.2575H26.4768C26.1002 13.1525 25.0665 12.3565 23.8528 12.3565C22.639 12.3565 21.6053 13.1525 21.2287 14.2575H21.0176V10.9011C21.0176 10.655 20.8214 10.4555 20.5792 10.4555C20.3371 10.4555 20.1408 10.655 20.1408 10.9011V14.2574H11.0447C10.6681 13.1524 9.63447 12.3564 8.42068 12.3564C7.20689 12.3564 6.17318 13.1524 5.79666 14.2574H3.2766C3.26047 14.2574 3.2474 14.2441 3.2474 14.2277V13.2475H5.14719C5.38929 13.2475 5.58562 13.0481 5.58562 12.802C5.58562 12.5559 5.38935 12.3564 5.14719 12.3564H0.938431C0.696329 12.3564 0.5 12.5559 0.5 12.802C0.5 13.0481 0.696274 13.2475 0.938431 13.2475H2.37059V14.2277C2.37059 14.7355 2.77703 15.1486 3.27665 15.1486H5.64485C5.64474 15.1584 5.64408 15.1683 5.64408 15.1782C5.64408 16.7342 6.8897 18 8.42068 18C9.95166 18 11.1973 16.7342 11.1973 15.1782C11.1973 15.1682 11.1966 15.1584 11.1965 15.1486H21.0769C21.0768 15.1584 21.0762 15.1683 21.0762 15.1782C21.0762 16.7342 22.3218 18 23.8528 18C25.3837 18 26.6294 16.7342 26.6294 15.1782C26.6294 15.1682 26.6287 15.1584 26.6286 15.1486H28.0616C28.3037 15.1486 28.5 14.9491 28.5 14.703V9.95051C28.5001 8.77716 27.6482 7.80228 26.5399 7.63083ZM21.0178 2.79215H24.3205C24.8523 2.79215 25.285 3.23188 25.285 3.77237V3.80205H21.0178V2.79215ZM21.0178 7.60404V4.69312H24.9135L25.6296 7.60404H21.0178ZM8.42068 17.109C7.37314 17.109 6.52089 16.243 6.52089 15.1783C6.52089 14.1137 7.37314 13.2476 8.42068 13.2476C9.46822 13.2476 10.3205 14.1137 10.3205 15.1783C10.3205 16.243 9.46822 17.109 8.42068 17.109ZM23.8529 17.109C22.8053 17.109 21.9531 16.243 21.9531 15.1783C21.9531 14.1137 22.8053 13.2476 23.8529 13.2476C24.9004 13.2476 25.7527 14.1137 25.7527 15.1783C25.7527 16.243 24.9004 17.109 23.8529 17.109ZM27.6232 11.406H27.1264C26.8524 11.406 26.6295 11.1795 26.6295 10.9011V10.3961H27.6232V11.406H27.6232Z" fill="#4A9C80"/>
<path d="M8.42071 14.2574C7.92109 14.2574 7.51465 14.6705 7.51465 15.1783C7.51465 15.686 7.92109 16.0991 8.42071 16.0991C8.92034 16.0991 9.32678 15.686 9.32678 15.1783C9.32678 14.6705 8.92034 14.2574 8.42071 14.2574Z" fill="#4A9C80"/>
<path d="M23.8528 14.2574C23.3532 14.2574 22.9468 14.6705 22.9468 15.1783C22.9468 15.686 23.3532 16.0991 23.8528 16.0991C24.3525 16.0991 24.7589 15.686 24.7589 15.1783C24.7589 14.6705 24.3525 14.2574 23.8528 14.2574Z" fill="#4A9C80"/>
<path d="M18.7085 12.3566H12.1616C11.9195 12.3566 11.7231 12.556 11.7231 12.8021C11.7231 13.0482 11.9194 13.2477 12.1616 13.2477H18.7085C18.9507 13.2477 19.147 13.0482 19.147 12.8021C19.147 12.556 18.9507 12.3566 18.7085 12.3566Z" fill="#4A9C80"/>
<path d="M7.4852 10.4554H1.87349C1.63139 10.4554 1.43506 10.6549 1.43506 10.901C1.43506 11.1471 1.63133 11.3466 1.87349 11.3466H7.4852C7.7273 11.3466 7.92363 11.1471 7.92363 10.901C7.92363 10.6549 7.7273 10.4554 7.4852 10.4554Z" fill="#4A9C80"/>
<path d="M15.7451 4.40768C15.5739 4.23373 15.2963 4.23373 15.1251 4.40774L11.2263 8.36991L9.19812 6.30871C9.02689 6.13469 8.7493 6.13469 8.57813 6.30871C8.4069 6.48272 8.4069 6.76478 8.57813 6.93879L10.9164 9.31506C11.0019 9.40209 11.1142 9.44555 11.2263 9.44555C11.3385 9.44555 11.4508 9.40209 11.5363 9.31506L15.7451 5.03782C15.9163 4.86375 15.9163 4.5817 15.7451 4.40768Z" fill="#4A9C80"/>
</svg>
