<svg width="22" height="24" viewBox="0 0 22 24" fill="none" xmlns="http://www.w3.org/2000/svg">
<path d="M18.6903 0H3.45983C2.70245 0 1.97609 0.266951 1.44054 0.742127C0.904994 1.2173 0.604126 1.86178 0.604126 2.53378V21.9704C0.603958 22.2503 0.682156 22.5258 0.831694 22.7722C0.981233 23.0186 1.19743 23.2281 1.46085 23.3821C1.72426 23.536 2.02666 23.6294 2.34085 23.654C2.65504 23.6785 2.97119 23.6334 3.26088 23.5228L6.5478 22.2669L10.2421 23.8361C10.5055 23.9468 10.7939 24.0028 11.0853 23.9999C11.3768 23.997 11.6636 23.9352 11.9241 23.8192L15.8345 22.0616L18.7854 23.3859C19.0755 23.5156 19.3982 23.5773 19.7228 23.5651C20.0473 23.5529 20.363 23.4672 20.6397 23.3162C20.9164 23.1652 21.1449 22.9538 21.3035 22.7023C21.4622 22.4508 21.5456 22.1674 21.546 21.8792V2.53378C21.546 1.86178 21.2451 1.2173 20.7095 0.742127C20.174 0.266951 19.4476 0 18.6903 0ZM19.6422 21.8792L16.6913 20.5549C16.4244 20.4353 16.1297 20.3731 15.8307 20.3731C15.5318 20.3731 15.2371 20.4353 14.9702 20.5549L11.0589 22.3125L7.36643 20.7441C7.12137 20.6398 6.85398 20.5832 6.58224 20.5783C6.3105 20.5733 6.04072 20.6201 5.79104 20.7153L2.50793 21.9704V2.53378C2.50793 2.30978 2.60822 2.09495 2.78673 1.93656C2.96525 1.77817 3.20737 1.68919 3.45983 1.68919H18.6903C18.9427 1.68919 19.1848 1.77817 19.3633 1.93656C19.5419 2.09495 19.6422 2.30978 19.6422 2.53378V21.8809V21.8792Z" fill="#A0A0A0"/>
<path d="M15.8346 4.22302H6.31555C6.06309 4.22302 5.82097 4.31201 5.64245 4.4704C5.46394 4.62879 5.36365 4.84362 5.36365 5.06762C5.36365 5.29162 5.46394 5.50644 5.64245 5.66483C5.82097 5.82322 6.06309 5.91221 6.31555 5.91221H15.8346C16.087 5.91221 16.3291 5.82322 16.5077 5.66483C16.6862 5.50644 16.7865 5.29162 16.7865 5.06762C16.7865 4.84362 16.6862 4.62879 16.5077 4.4704C16.3291 4.31201 16.087 4.22302 15.8346 4.22302ZM15.8346 8.44599H6.31555C6.06309 8.44599 5.82097 8.53497 5.64245 8.69336C5.46394 8.85176 5.36365 9.06658 5.36365 9.29058C5.36365 9.51458 5.46394 9.72941 5.64245 9.8878C5.82097 10.0462 6.06309 10.1352 6.31555 10.1352H15.8346C16.087 10.1352 16.3291 10.0462 16.5077 9.8878C16.6862 9.72941 16.7865 9.51458 16.7865 9.29058C16.7865 9.06658 16.6862 8.85176 16.5077 8.69336C16.3291 8.53497 16.087 8.44599 15.8346 8.44599ZM11.67 12.669H6.31555C6.06309 12.669 5.82097 12.7579 5.64245 12.9163C5.46394 13.0747 5.36365 13.2895 5.36365 13.5135C5.36365 13.7375 5.46394 13.9524 5.64245 14.1108C5.82097 14.2692 6.06309 14.3581 6.31555 14.3581H11.67C11.9225 14.3581 12.1646 14.2692 12.3431 14.1108C12.5216 13.9524 12.6219 13.7375 12.6219 13.5135C12.6219 13.2895 12.5216 13.0747 12.3431 12.9163C12.1646 12.7579 11.9225 12.669 11.67 12.669Z" fill="#A0A0A0"/>
</svg>
