<svg width="29" height="26" viewBox="0 0 29 26" fill="none" xmlns="http://www.w3.org/2000/svg">
<path d="M27.5741 15.229H27.1416V11.7243C27.1416 11.1695 26.8346 10.6782 26.3657 10.3797V9.90254C26.3657 9.21034 25.7397 8.64723 24.9702 8.64723H24.6472L25.8829 7.01613C26.2971 6.46942 26.1396 5.72146 25.5318 5.34883L17.1467 0.208749C16.8523 0.0282215 16.4975 -0.0384036 16.1472 0.021366C15.7972 0.081034 15.4938 0.259733 15.2932 0.524608L8.0558 10.0777H6.04182L6.52771 5.65316C6.53319 5.60329 6.56921 5.56008 6.61945 5.54307C7.24546 5.33075 7.78798 4.93425 8.14703 4.42664C8.17531 4.38668 8.22866 4.36383 8.28387 4.36885L11.4427 4.64957C11.6692 4.66933 11.8707 4.52094 11.8931 4.31731C11.9154 4.11368 11.7501 3.93234 11.5237 3.91223L8.36483 3.63151C7.99816 3.59921 7.64849 3.7512 7.45203 4.02887C7.18805 4.40211 6.78915 4.6936 6.32889 4.8497C5.98243 4.96721 5.74453 5.24712 5.70795 5.58029L5.2141 10.0777H4.68891L5.45736 3.07982C5.48502 2.82795 5.73494 2.6429 6.01529 2.66814L12.3987 3.23536C12.6251 3.25502 12.8267 3.10673 12.849 2.9031C12.8714 2.69947 12.706 2.51813 12.4797 2.49802L6.09624 1.93079C5.36438 1.86584 4.70991 2.34852 4.63759 3.00695L4.01819 8.64723H2.96335C2.19389 8.64723 1.56782 9.21034 1.56782 9.90254V10.228C0.938305 10.4888 0.5 11.0612 0.5 11.7243V24.3534C0.5 25.2613 1.32117 26 2.33062 26H25.311C26.3204 26 27.1416 25.2613 27.1416 24.3534V20.8487H27.5741C28.0847 20.8487 28.5 20.4752 28.5 20.0159V16.0619C28.5001 15.6026 28.0847 15.229 27.5741 15.229ZM24.9702 9.38823C25.2855 9.38818 25.542 9.61893 25.542 9.90259V10.0913C25.4662 10.0827 25.3893 10.0778 25.311 10.0778H23.5635L24.0858 9.38823H24.9702ZM15.9739 0.941827C16.0506 0.840519 16.1667 0.772167 16.3006 0.749316C16.3326 0.743882 16.3647 0.74114 16.3966 0.74114C16.498 0.74114 16.5972 0.76846 16.6829 0.820968L25.068 5.96105C25.3004 6.10359 25.3607 6.38969 25.2023 6.59881L22.5667 10.0776H21.9342L23.2264 8.37204C23.4359 8.09544 23.4532 7.74342 23.2713 7.45331C23.0296 7.06788 22.9316 6.61405 22.9954 6.17535C23.0428 5.84897 22.8832 5.53037 22.5788 5.3438L18.2319 2.67921C17.9275 2.49259 17.5394 2.47547 17.2191 2.63457C16.7887 2.84836 16.2832 2.9323 15.796 2.87096C15.4347 2.82536 15.0683 2.97211 14.8618 3.24456L9.68511 10.0777H9.0526L15.9739 0.941827ZM16.1552 7.23317C14.3617 7.23317 12.8894 8.49117 12.7694 10.0777H10.6818L15.5424 3.66183C15.5424 3.66183 15.5424 3.66183 15.5424 3.66183C15.57 3.62531 15.6158 3.60358 15.6629 3.60358C15.6691 3.60358 15.6754 3.60399 15.6817 3.60475C16.3443 3.68813 17.0316 3.57407 17.6172 3.28325C17.6632 3.2603 17.7224 3.2636 17.768 3.29153L22.1149 5.95617C22.1604 5.9841 22.1854 6.03245 22.1786 6.07937C22.0918 6.676 22.2252 7.29319 22.5539 7.81736C22.5803 7.85946 22.5771 7.91339 22.5458 7.95477L20.9375 10.0776H19.5413C19.4212 8.49117 17.9489 7.23317 16.1552 7.23317ZM18.7153 10.0777H13.5952C13.7132 8.90017 14.816 7.97417 16.1552 7.97417C17.4946 7.97412 18.5974 8.90017 18.7153 10.0777ZM2.39153 9.90254C2.39153 9.61887 2.648 9.38812 2.96335 9.38812H3.93684L3.86113 10.0777H2.39153V9.90254ZM1.32371 11.7243C1.32371 11.2249 1.7754 10.8186 2.33062 10.8186H25.311C25.8662 10.8186 26.3178 11.2249 26.3178 11.7243V12.7523H1.32371V11.7243ZM26.3178 24.3534C26.3178 24.8528 25.8662 25.2591 25.311 25.2591H2.33062C1.7754 25.2591 1.32371 24.8528 1.32371 24.3534V23.3253H3.54471C3.77222 23.3253 3.95654 23.1595 3.95654 22.9549C3.95654 22.7503 3.77216 22.5845 3.54471 22.5845H1.32371V13.4933H26.3178V15.229H22.4019H22.4018C21.168 15.229 20.0992 15.8759 19.592 16.8124C19.5903 16.8155 19.5884 16.8186 19.5866 16.8217C19.5823 16.8297 19.5786 16.838 19.5744 16.846C19.514 16.9614 19.4615 17.0809 19.4188 17.2042C19.4187 17.2046 19.4185 17.2049 19.4184 17.2052C19.3273 17.4687 19.2781 17.7487 19.2781 18.0389C19.2781 19.5883 20.6794 20.8487 22.4018 20.8487H22.4018H26.3178V22.5845H6.18188C5.95437 22.5845 5.77005 22.7503 5.77005 22.9549C5.77005 23.1595 5.95443 23.3253 6.18188 23.3253H26.3178V24.3534ZM27.6763 20.0159C27.6763 20.0666 27.6305 20.1078 27.5741 20.1078H22.4019C21.53 20.1078 20.7698 19.6691 20.3799 19.0242C20.3622 18.9949 20.3452 18.9652 20.329 18.9351C20.2967 18.8748 20.2675 18.8129 20.2417 18.7495C20.1513 18.5278 20.1019 18.2884 20.1019 18.0389C20.1019 17.7893 20.1513 17.5499 20.2417 17.3282C20.2675 17.2649 20.2967 17.203 20.329 17.1427C20.3452 17.1126 20.3622 17.0828 20.3799 17.0535C20.7698 16.4086 21.53 15.9699 22.4019 15.9699H27.5741C27.6304 15.9699 27.6763 16.0112 27.6763 16.0619V20.0159Z" fill="#4A9C80"/>
</svg>
